# MagicaVoxel @ Ephtracy

# group
o 

# material
mtllib ArmUpper.mtl
usemtl palette

# normals
vn -1 0 0
vn 1 0 0
vn 0 0 1
vn 0 0 -1
vn 0 -1 0
vn 0 1 0

# texcoords
vt 0.951172 0.5
vt 0.970703 0.5
vt 0.974609 0.5

# verts
v 0 -0.1 0.1
v 0 -0.1 -0.1
v 0 0.1 0.1
v 0 0.1 -0.1
v 0.8 -0.1 0.1
v 0.8 -0.1 0
v 0.8 -0.1 -0.1
v 0.8 0.1 0.1
v 0.8 0.1 0
v 0.8 0.1 -0.1
v 0 -0.1 0.1
v 0 0.1 0.1
v 0.4 -0.1 0.1
v 0.4 0.1 0.1
v 0.7 -0.1 0.1
v 0.7 0.1 0.1
v 0.8 -0.1 0.1
v 0.8 0.1 0.1
v 0 -0.1 -0.1
v 0 0.1 -0.1
v 0.4 -0.1 -0.1
v 0.4 0.1 -0.1
v 0.8 -0.1 -0.1
v 0.8 0.1 -0.1
v 0 -0.1 0.1
v 0.4 -0.1 0.1
v 0.7 -0.1 0.1
v 0.8 -0.1 0.1
v 0.7 -0.1 0
v 0.8 -0.1 0
v 0 -0.1 -0.1
v 0.4 -0.1 -0.1
v 0.8 -0.1 -0.1
v 0 0.1 0.1
v 0.4 0.1 0.1
v 0.7 0.1 0.1
v 0.8 0.1 0.1
v 0.7 0.1 0
v 0.8 0.1 0
v 0 0.1 -0.1
v 0.4 0.1 -0.1
v 0.8 0.1 -0.1

# faces
f 3/1/1 2/1/1 1/1/1
f 4/1/1 2/1/1 3/1/1
f 5/3/2 6/3/2 8/3/2
f 6/2/2 7/2/2 9/2/2
f 8/3/2 6/3/2 9/3/2
f 9/2/2 7/2/2 10/2/2
f 13/1/3 12/1/3 11/1/3
f 14/1/3 12/1/3 13/1/3
f 15/2/3 14/2/3 13/2/3
f 16/2/3 14/2/3 15/2/3
f 17/3/3 16/3/3 15/3/3
f 18/3/3 16/3/3 17/3/3
f 19/1/4 20/1/4 21/1/4
f 21/1/4 20/1/4 22/1/4
f 21/2/4 22/2/4 23/2/4
f 23/2/4 22/2/4 24/2/4
f 29/2/5 27/2/5 26/2/5
f 29/3/5 28/3/5 27/3/5
f 30/3/5 28/3/5 29/3/5
f 31/1/5 26/1/5 25/1/5
f 32/2/5 29/2/5 26/2/5
f 32/1/5 26/1/5 31/1/5
f 32/2/5 30/2/5 29/2/5
f 33/2/5 30/2/5 32/2/5
f 35/2/6 36/2/6 38/2/6
f 36/3/6 37/3/6 38/3/6
f 38/3/6 37/3/6 39/3/6
f 34/1/6 35/1/6 40/1/6
f 35/2/6 38/2/6 41/2/6
f 40/1/6 35/1/6 41/1/6
f 38/2/6 39/2/6 41/2/6
f 41/2/6 39/2/6 42/2/6
