# MagicaVoxel @ Ephtracy

# group
o 

# material
mtllib ArmUpper.mtl
usemtl palette

# normals
vn -1 0 0
vn 1 0 0
vn 0 0 1
vn 0 0 -1
vn 0 -1 0
vn 0 1 0

# texcoords
vt 0.642578 0.5
vt 0.646484 0.5
vt 0.681641 0.5
vt 0.685547 0.5

# verts
v 0 -0.1 0.1
v 0 -0.1 -0.1
v 0 0.1 0.1
v 0 0.1 -0.1
v 0.8 -0.1 0.1
v 0.8 -0.1 0
v 0.8 -0.1 -0.1
v 0.8 0.1 0.1
v 0.8 0.1 0
v 0.8 0.1 -0.1
v 0 -0.1 0.1
v 0 0.1 0.1
v 0.5 -0.1 0.1
v 0.5 0.1 0.1
v 0.7 -0.1 0.1
v 0.7 0.1 0.1
v 0.8 -0.1 0.1
v 0.8 0.1 0.1
v 0 -0.1 -0.1
v 0 0.1 -0.1
v 0.5 -0.1 -0.1
v 0.5 0.1 -0.1
v 0.7 -0.1 -0.1
v 0.7 0.1 -0.1
v 0.8 -0.1 -0.1
v 0.8 0.1 -0.1
v 0 -0.1 0.1
v 0.5 -0.1 0.1
v 0.7 -0.1 0.1
v 0.8 -0.1 0.1
v 0.7 -0.1 0
v 0.8 -0.1 0
v 0 -0.1 -0.1
v 0.5 -0.1 -0.1
v 0.7 -0.1 -0.1
v 0.8 -0.1 -0.1
v 0 0.1 0.1
v 0.5 0.1 0.1
v 0.7 0.1 0.1
v 0.8 0.1 0.1
v 0.7 0.1 0
v 0.8 0.1 0
v 0 0.1 -0.1
v 0.5 0.1 -0.1
v 0.7 0.1 -0.1
v 0.8 0.1 -0.1

# faces
f 3/1/1 2/1/1 1/1/1
f 4/1/1 2/1/1 3/1/1
f 5/3/2 6/3/2 8/3/2
f 6/4/2 7/4/2 9/4/2
f 8/3/2 6/3/2 9/3/2
f 9/4/2 7/4/2 10/4/2
f 13/1/3 12/1/3 11/1/3
f 14/1/3 12/1/3 13/1/3
f 15/2/3 14/2/3 13/2/3
f 16/2/3 14/2/3 15/2/3
f 17/3/3 16/3/3 15/3/3
f 18/3/3 16/3/3 17/3/3
f 19/1/4 20/1/4 21/1/4
f 21/1/4 20/1/4 22/1/4
f 21/2/4 22/2/4 23/2/4
f 23/2/4 22/2/4 24/2/4
f 23/4/4 24/4/4 25/4/4
f 25/4/4 24/4/4 26/4/4
f 31/2/5 29/2/5 28/2/5
f 31/3/5 30/3/5 29/3/5
f 32/3/5 30/3/5 31/3/5
f 33/1/5 28/1/5 27/1/5
f 34/2/5 31/2/5 28/2/5
f 34/1/5 28/1/5 33/1/5
f 35/4/5 32/4/5 31/4/5
f 35/2/5 31/2/5 34/2/5
f 36/4/5 32/4/5 35/4/5
f 38/2/6 39/2/6 41/2/6
f 39/3/6 40/3/6 41/3/6
f 41/3/6 40/3/6 42/3/6
f 37/1/6 38/1/6 43/1/6
f 38/2/6 41/2/6 44/2/6
f 43/1/6 38/1/6 44/1/6
f 41/4/6 42/4/6 45/4/6
f 44/2/6 41/2/6 45/2/6
f 45/4/6 42/4/6 46/4/6
