# MagicaVoxel @ Ephtracy

# group
o 

# material
mtllib Torso.mtl
usemtl palette

# normals
vn -1 0 0
vn 1 0 0
vn 0 0 1
vn 0 0 -1
vn 0 -1 0
vn 0 1 0

# texcoords
vt 0.638672 0.5
vt 0.642578 0.5
vt 0.646484 0.5
vt 0.888672 0.5

# verts
v -0.6 0 0.1
v -0.6 0 -0.2
v -0.6 0.1 0.1
v -0.6 0.1 -0.2
v -0.6 1.3 0.1
v -0.6 1.3 -0.2
v -0.5 0 0.2
v -0.5 0 0.1
v -0.5 0 -0.2
v -0.5 0 -0.3
v -0.5 0.1 0.2
v -0.5 0.1 0.1
v -0.5 0.1 -0.2
v -0.5 0.1 -0.3
v -0.5 0.3 0.2
v -0.5 0.3 0.1
v -0.5 0.4 0.2
v -0.5 0.4 0.1
v -0.5 0.6 0.2
v -0.5 0.6 0.1
v -0.5 0.9 0.2
v -0.5 0.9 0.1
v -0.5 1 0.2
v -0.5 1 0.1
v -0.5 1.2 0.2
v -0.5 1.2 0.1
v -0.5 1.2 -0.2
v -0.5 1.2 -0.3
v -0.5 1.3 0.1
v -0.5 1.3 -0.2
v -0.5 1.4 0.1
v -0.5 1.4 -0.2
v -0.4 1.2 0.2
v -0.4 1.2 0.1
v -0.4 1.2 -0.2
v -0.4 1.2 -0.3
v -0.4 1.3 0.2
v -0.4 1.3 0.1
v -0.4 1.3 -0.2
v -0.4 1.3 -0.3
v 0.3 1.2 0.2
v 0.3 1.2 0.1
v 0.3 1.2 -0.2
v 0.3 1.2 -0.3
v 0.3 1.3 0.2
v 0.3 1.3 0.1
v 0.3 1.3 -0.2
v 0.3 1.3 -0.3
v 0.4 0 0.2
v 0.4 0 0.1
v 0.4 0 -0.2
v 0.4 0 -0.3
v 0.4 0.1 0.2
v 0.4 0.1 0.1
v 0.4 0.1 -0.2
v 0.4 0.1 -0.3
v 0.4 0.6 0.2
v 0.4 0.6 0.1
v 0.4 0.9 0.2
v 0.4 0.9 0.1
v 0.4 1 0.2
v 0.4 1 0.1
v 0.4 1.2 0.2
v 0.4 1.2 0.1
v 0.4 1.2 -0.2
v 0.4 1.2 -0.3
v 0.4 1.3 0.1
v 0.4 1.3 -0.2
v 0.4 1.4 0.1
v 0.4 1.4 -0.2
v 0.5 0 0.1
v 0.5 0 -0.2
v 0.5 0.1 0.1
v 0.5 0.1 -0.2
v 0.5 1.3 0.1
v 0.5 1.3 -0.2
v -0.5 0 0.2
v -0.5 0.1 0.2
v -0.5 0.3 0.2
v -0.5 0.4 0.2
v -0.5 0.6 0.2
v -0.5 0.9 0.2
v -0.5 1 0.2
v -0.5 1.2 0.2
v -0.4 1.2 0.2
v -0.4 1.3 0.2
v -0.3 1.2 0.2
v -0.3 1.3 0.2
v -0.2 0.6 0.2
v -0.2 0.9 0.2
v -0.2 1 0.2
v -0.1 0.1 0.2
v -0.1 0.3 0.2
v -0.1 0.4 0.2
v -0.1 1.2 0.2
v -5.96046e-008 0.1 0.2
v -5.96046e-008 1.2 0.2
v 0.1 0.6 0.2
v 0.1 0.9 0.2
v 0.1 1 0.2
v 0.2 1.2 0.2
v 0.2 1.3 0.2
v 0.3 1.2 0.2
v 0.3 1.3 0.2
v 0.4 0 0.2
v 0.4 0.1 0.2
v 0.4 0.6 0.2
v 0.4 0.9 0.2
v 0.4 1 0.2
v 0.4 1.2 0.2
v -0.6 0 0.1
v -0.6 0.1 0.1
v -0.6 1.3 0.1
v -0.5 0 0.1
v -0.5 0.1 0.1
v -0.5 0.3 0.1
v -0.5 0.4 0.1
v -0.5 0.6 0.1
v -0.5 0.9 0.1
v -0.5 1 0.1
v -0.5 1.2 0.1
v -0.5 1.3 0.1
v -0.5 1.4 0.1
v -0.4 1.2 0.1
v -0.4 1.3 0.1
v -0.4 1.4 0.1
v -0.3 1.3 0.1
v 0.2 1.3 0.1
v 0.3 1.2 0.1
v 0.3 1.3 0.1
v 0.3 1.4 0.1
v 0.4 0 0.1
v 0.4 0.1 0.1
v 0.4 0.6 0.1
v 0.4 0.9 0.1
v 0.4 1 0.1
v 0.4 1.2 0.1
v 0.4 1.3 0.1
v 0.4 1.4 0.1
v 0.5 0 0.1
v 0.5 0.1 0.1
v 0.5 1.3 0.1
v -0.6 0 -0.2
v -0.6 0.1 -0.2
v -0.6 1.3 -0.2
v -0.5 0 -0.2
v -0.5 0.1 -0.2
v -0.5 1.2 -0.2
v -0.5 1.3 -0.2
v -0.5 1.4 -0.2
v -0.4 1.2 -0.2
v -0.4 1.3 -0.2
v -0.3 1.3 -0.2
v -0.3 1.4 -0.2
v 0.2 1.3 -0.2
v 0.2 1.4 -0.2
v 0.3 1.2 -0.2
v 0.3 1.3 -0.2
v 0.4 0 -0.2
v 0.4 0.1 -0.2
v 0.4 1.2 -0.2
v 0.4 1.3 -0.2
v 0.4 1.4 -0.2
v 0.5 0 -0.2
v 0.5 0.1 -0.2
v 0.5 1.3 -0.2
v -0.5 0 -0.3
v -0.5 0.1 -0.3
v -0.5 1.2 -0.3
v -0.4 1.2 -0.3
v -0.4 1.3 -0.3
v 0.3 1.2 -0.3
v 0.3 1.3 -0.3
v 0.4 0 -0.3
v 0.4 0.1 -0.3
v 0.4 1.2 -0.3
v -0.5 0 0.2
v 0.4 0 0.2
v -0.6 0 0.1
v -0.5 0 0.1
v 0.4 0 0.1
v 0.5 0 0.1
v -0.6 0 -0.2
v -0.5 0 -0.2
v 0.4 0 -0.2
v 0.5 0 -0.2
v -0.5 0 -0.3
v 0.4 0 -0.3
v -0.5 1.2 0.2
v -0.4 1.2 0.2
v 0.3 1.2 0.2
v 0.4 1.2 0.2
v -0.5 1.2 0.1
v -0.4 1.2 0.1
v 0.3 1.2 0.1
v 0.4 1.2 0.1
v -0.5 1.2 -0.2
v -0.4 1.2 -0.2
v 0.3 1.2 -0.2
v 0.4 1.2 -0.2
v -0.5 1.2 -0.3
v -0.4 1.2 -0.3
v 0.3 1.2 -0.3
v 0.4 1.2 -0.3
v -0.4 1.3 0.2
v -0.3 1.3 0.2
v 0.2 1.3 0.2
v 0.3 1.3 0.2
v -0.6 1.3 0.1
v -0.5 1.3 0.1
v -0.4 1.3 0.1
v -0.3 1.3 0.1
v 0.2 1.3 0.1
v 0.3 1.3 0.1
v 0.4 1.3 0.1
v 0.5 1.3 0.1
v -0.6 1.3 -0.2
v -0.5 1.3 -0.2
v -0.4 1.3 -0.2
v -0.3 1.3 -0.2
v 0.2 1.3 -0.2
v 0.3 1.3 -0.2
v 0.4 1.3 -0.2
v 0.5 1.3 -0.2
v -0.4 1.3 -0.3
v 0.3 1.3 -0.3
v -0.5 1.4 0.1
v -0.4 1.4 0.1
v 0.3 1.4 0.1
v 0.4 1.4 0.1
v -0.4 1.4 0
v -0.3 1.4 0
v 0.2 1.4 0
v 0.3 1.4 0
v -0.5 1.4 -0.2
v -0.3 1.4 -0.2
v 0.2 1.4 -0.2
v 0.4 1.4 -0.2

# faces
f 3/3/1 2/3/1 1/3/1
f 4/3/1 2/3/1 3/3/1
f 5/2/1 4/2/1 3/2/1
f 6/2/1 4/2/1 5/2/1
f 11/3/1 8/3/1 7/3/1
f 12/3/1 8/3/1 11/3/1
f 13/3/1 10/3/1 9/3/1
f 14/3/1 10/3/1 13/3/1
f 15/1/1 12/1/1 11/1/1
f 16/1/1 12/1/1 15/1/1
f 17/3/1 16/3/1 15/3/1
f 18/3/1 16/3/1 17/3/1
f 19/2/1 18/2/1 17/2/1
f 20/2/1 18/2/1 19/2/1
f 21/1/1 20/1/1 19/1/1
f 22/1/1 20/1/1 21/1/1
f 23/3/1 22/3/1 21/3/1
f 24/3/1 22/3/1 23/3/1
f 25/2/1 24/2/1 23/2/1
f 26/2/1 24/2/1 25/2/1
f 27/2/1 14/2/1 13/2/1
f 28/2/1 14/2/1 27/2/1
f 31/2/1 30/2/1 29/2/1
f 32/2/1 30/2/1 31/2/1
f 37/2/1 34/2/1 33/2/1
f 38/2/1 34/2/1 37/2/1
f 39/2/1 36/2/1 35/2/1
f 40/2/1 36/2/1 39/2/1
f 41/2/2 42/2/2 45/2/2
f 45/2/2 42/2/2 46/2/2
f 43/2/2 44/2/2 47/2/2
f 47/2/2 44/2/2 48/2/2
f 49/3/2 50/3/2 53/3/2
f 53/3/2 50/3/2 54/3/2
f 51/3/2 52/3/2 55/3/2
f 55/3/2 52/3/2 56/3/2
f 53/2/2 54/2/2 57/2/2
f 57/2/2 54/2/2 58/2/2
f 57/1/2 58/1/2 59/1/2
f 59/1/2 58/1/2 60/1/2
f 59/3/2 60/3/2 61/3/2
f 61/3/2 60/3/2 62/3/2
f 61/2/2 62/2/2 63/2/2
f 63/2/2 62/2/2 64/2/2
f 55/2/2 56/2/2 65/2/2
f 65/2/2 56/2/2 66/2/2
f 67/2/2 68/2/2 69/2/2
f 69/2/2 68/2/2 70/2/2
f 71/3/2 72/3/2 73/3/2
f 73/3/2 72/3/2 74/3/2
f 73/2/2 74/2/2 75/2/2
f 75/2/2 74/2/2 76/2/2
f 85/2/3 84/2/3 83/2/3
f 87/2/3 85/2/3 83/2/3
f 87/2/3 86/2/3 85/2/3
f 88/2/3 86/2/3 87/2/3
f 89/2/3 81/2/3 80/2/3
f 89/1/3 82/1/3 81/1/3
f 90/3/3 83/3/3 82/3/3
f 90/1/3 82/1/3 89/1/3
f 91/2/3 87/2/3 83/2/3
f 91/3/3 83/3/3 90/3/3
f 92/3/3 78/3/3 77/3/3
f 92/1/3 79/1/3 78/1/3
f 93/3/3 80/3/3 79/3/3
f 93/1/3 79/1/3 92/1/3
f 94/2/3 91/2/3 90/2/3
f 94/3/3 80/3/3 93/3/3
f 94/2/3 89/2/3 80/2/3
f 94/2/3 90/2/3 89/2/3
f 95/2/3 87/2/3 91/2/3
f 95/2/3 91/2/3 94/2/3
f 95/3/3 88/3/3 87/3/3
f 96/3/3 94/3/3 93/3/3
f 96/3/3 93/3/3 92/3/3
f 96/3/3 95/3/3 94/3/3
f 96/3/3 92/3/3 77/3/3
f 97/3/3 88/3/3 95/3/3
f 97/3/3 95/3/3 96/3/3
f 98/2/3 97/2/3 96/2/3
f 99/2/3 97/2/3 98/2/3
f 100/2/3 97/2/3 99/2/3
f 101/3/3 88/3/3 97/3/3
f 101/2/3 97/2/3 100/2/3
f 102/3/3 88/3/3 101/3/3
f 103/2/3 101/2/3 100/2/3
f 103/2/3 102/2/3 101/2/3
f 104/2/3 102/2/3 103/2/3
f 105/3/3 96/3/3 77/3/3
f 106/2/3 98/2/3 96/2/3
f 106/3/3 96/3/3 105/3/3
f 107/1/3 99/1/3 98/1/3
f 107/2/3 98/2/3 106/2/3
f 108/3/3 100/3/3 99/3/3
f 108/1/3 99/1/3 107/1/3
f 109/2/3 103/2/3 100/2/3
f 109/3/3 100/3/3 108/3/3
f 110/2/3 103/2/3 109/2/3
f 114/3/3 112/3/3 111/3/3
f 115/2/3 113/2/3 112/2/3
f 115/3/3 112/3/3 114/3/3
f 116/2/3 113/2/3 115/2/3
f 117/2/3 113/2/3 116/2/3
f 118/2/3 113/2/3 117/2/3
f 119/2/3 113/2/3 118/2/3
f 120/2/3 113/2/3 119/2/3
f 121/2/3 113/2/3 120/2/3
f 122/2/3 113/2/3 121/2/3
f 124/2/3 123/2/3 122/2/3
f 124/2/3 122/2/3 121/2/3
f 125/2/3 123/2/3 124/2/3
f 126/2/3 123/2/3 125/2/3
f 127/3/3 126/3/3 125/3/3
f 128/3/3 126/3/3 127/3/3
f 130/3/3 126/3/3 128/3/3
f 131/3/3 126/3/3 130/3/3
f 137/1/3 130/1/3 129/1/3
f 138/2/3 131/2/3 130/2/3
f 138/1/3 130/1/3 137/1/3
f 139/2/3 131/2/3 138/2/3
f 140/3/3 133/3/3 132/3/3
f 141/2/3 136/2/3 135/2/3
f 141/3/3 133/3/3 140/3/3
f 141/2/3 137/2/3 136/2/3
f 141/2/3 138/2/3 137/2/3
f 141/2/3 134/2/3 133/2/3
f 141/2/3 135/2/3 134/2/3
f 142/2/3 138/2/3 141/2/3
f 143/3/4 144/3/4 146/3/4
f 144/2/4 145/2/4 147/2/4
f 146/3/4 144/3/4 147/3/4
f 147/2/4 145/2/4 148/2/4
f 148/2/4 145/2/4 149/2/4
f 148/1/4 149/1/4 151/1/4
f 149/2/4 150/2/4 152/2/4
f 151/1/4 149/1/4 152/1/4
f 152/2/4 150/2/4 153/2/4
f 153/2/4 150/2/4 154/2/4
f 153/3/4 154/3/4 155/3/4
f 155/3/4 154/3/4 156/3/4
f 155/2/4 156/2/4 158/2/4
f 157/1/4 158/1/4 161/1/4
f 158/2/4 156/2/4 162/2/4
f 161/1/4 158/1/4 162/1/4
f 162/2/4 156/2/4 163/2/4
f 159/3/4 160/3/4 164/3/4
f 160/2/4 161/2/4 165/2/4
f 164/3/4 160/3/4 165/3/4
f 161/2/4 162/2/4 165/2/4
f 165/2/4 162/2/4 166/2/4
f 168/2/4 169/2/4 170/2/4
f 168/2/4 170/2/4 172/2/4
f 170/2/4 171/2/4 172/2/4
f 172/2/4 171/2/4 173/2/4
f 167/3/4 168/3/4 174/3/4
f 168/2/4 172/2/4 175/2/4
f 174/3/4 168/3/4 175/3/4
f 175/2/4 172/2/4 176/2/4
f 180/3/5 178/3/5 177/3/5
f 181/3/5 178/3/5 180/3/5
f 183/3/5 180/3/5 179/3/5
f 184/2/5 181/2/5 180/2/5
f 184/3/5 180/3/5 183/3/5
f 185/3/5 182/3/5 181/3/5
f 185/2/5 181/2/5 184/2/5
f 186/3/5 182/3/5 185/3/5
f 187/3/5 185/3/5 184/3/5
f 188/3/5 185/3/5 187/3/5
f 189/2/6 190/2/6 193/2/6
f 193/2/6 190/2/6 194/2/6
f 191/2/6 192/2/6 195/2/6
f 195/2/6 192/2/6 196/2/6
f 197/2/6 198/2/6 201/2/6
f 201/2/6 198/2/6 202/2/6
f 199/2/6 200/2/6 203/2/6
f 203/2/6 200/2/6 204/2/6
f 205/2/6 206/2/6 211/2/6
f 206/3/6 207/3/6 212/3/6
f 211/2/6 206/2/6 212/2/6
f 207/2/6 208/2/6 213/2/6
f 212/3/6 207/3/6 213/3/6
f 213/2/6 208/2/6 214/2/6
f 209/2/6 210/2/6 217/2/6
f 217/2/6 210/2/6 218/2/6
f 215/2/6 216/2/6 223/2/6
f 223/2/6 216/2/6 224/2/6
f 221/2/6 222/2/6 225/2/6
f 219/2/6 220/2/6 225/2/6
f 220/2/6 221/2/6 225/2/6
f 225/2/6 222/2/6 226/2/6
f 227/2/6 228/2/6 231/2/6
f 228/3/6 229/3/6 231/3/6
f 231/3/6 229/3/6 232/3/6
f 232/3/6 229/3/6 233/3/6
f 229/2/6 230/2/6 234/2/6
f 233/3/6 229/3/6 234/3/6
f 227/2/6 231/2/6 235/2/6
f 231/2/6 232/2/6 235/2/6
f 232/3/6 233/3/6 236/3/6
f 235/2/6 232/2/6 236/2/6
f 233/2/6 234/2/6 237/2/6
f 236/3/6 233/3/6 237/3/6
f 234/2/6 230/2/6 238/2/6
f 237/2/6 234/2/6 238/2/6
