# MagicaVoxel @ Ephtracy

# group
o 

# material
mtllib Torso.mtl
usemtl palette

# normals
vn -1 0 0
vn 1 0 0
vn 0 0 1
vn 0 0 -1
vn 0 -1 0
vn 0 1 0

# texcoords
vt 0.818359 0.5
vt 0.951172 0.5
vt 0.994141 0.5

# verts
v -0.5 0 0.1
v -0.5 0 -0.2
v -0.5 0.1 0.1
v -0.5 0.1 -0.2
v -0.5 1.3 0.1
v -0.5 1.3 -0.2
v -0.4 0 0.2
v -0.4 0 0.1
v -0.4 0 -0.2
v -0.4 0 -0.3
v -0.4 0.1 0.2
v -0.4 0.1 0.1
v -0.4 0.1 -0.2
v -0.4 0.1 -0.3
v -0.4 1.2 0.2
v -0.4 1.2 0.1
v -0.4 1.2 -0.2
v -0.4 1.2 -0.3
v -0.4 1.3 0.1
v -0.4 1.3 -0.2
v -0.4 1.4 0.1
v -0.4 1.4 -0.2
v -0.3 1.2 0.2
v -0.3 1.2 0.1
v -0.3 1.2 -0.2
v -0.3 1.2 -0.3
v -0.3 1.3 0.2
v -0.3 1.3 0.1
v -0.3 1.3 -0.2
v -0.3 1.3 -0.3
v 0.4 1.2 0.2
v 0.4 1.2 0.1
v 0.4 1.2 -0.2
v 0.4 1.2 -0.3
v 0.4 1.3 0.2
v 0.4 1.3 0.1
v 0.4 1.3 -0.2
v 0.4 1.3 -0.3
v 0.5 0 0.2
v 0.5 0 0.1
v 0.5 0 -0.2
v 0.5 0 -0.3
v 0.5 0.1 0.2
v 0.5 0.1 0.1
v 0.5 0.1 -0.2
v 0.5 0.1 -0.3
v 0.5 1.2 0.2
v 0.5 1.2 0.1
v 0.5 1.2 -0.2
v 0.5 1.2 -0.3
v 0.5 1.3 0.1
v 0.5 1.3 -0.2
v 0.5 1.4 0.1
v 0.5 1.4 -0.2
v 0.6 0 0.1
v 0.6 0 -0.2
v 0.6 0.1 0.1
v 0.6 0.1 -0.2
v 0.6 1.3 0.1
v 0.6 1.3 -0.2
v -0.4 0 0.2
v -0.4 0.1 0.2
v -0.4 1.2 0.2
v -0.3 1.2 0.2
v -0.3 1.3 0.2
v 0 0 0.2
v 0 0.1 0.2
v 0.1 0 0.2
v 0.1 0.1 0.2
v 0.4 1.2 0.2
v 0.4 1.3 0.2
v 0.5 0 0.2
v 0.5 0.1 0.2
v 0.5 1.2 0.2
v -0.5 0 0.1
v -0.5 0.1 0.1
v -0.5 1.3 0.1
v -0.4 0 0.1
v -0.4 0.1 0.1
v -0.4 1.2 0.1
v -0.4 1.3 0.1
v -0.4 1.4 0.1
v -0.3 1.2 0.1
v -0.3 1.3 0.1
v 0.4 1.2 0.1
v 0.4 1.3 0.1
v 0.5 0 0.1
v 0.5 0.1 0.1
v 0.5 1.2 0.1
v 0.5 1.3 0.1
v 0.5 1.4 0.1
v 0.6 0 0.1
v 0.6 0.1 0.1
v 0.6 1.3 0.1
v -0.5 0 -0.2
v -0.5 0.1 -0.2
v -0.5 1.3 -0.2
v -0.4 0 -0.2
v -0.4 0.1 -0.2
v -0.4 1.2 -0.2
v -0.4 1.3 -0.2
v -0.4 1.4 -0.2
v -0.3 1.2 -0.2
v -0.3 1.3 -0.2
v 0.4 1.2 -0.2
v 0.4 1.3 -0.2
v 0.5 0 -0.2
v 0.5 0.1 -0.2
v 0.5 1.2 -0.2
v 0.5 1.3 -0.2
v 0.5 1.4 -0.2
v 0.6 0 -0.2
v 0.6 0.1 -0.2
v 0.6 1.3 -0.2
v -0.4 0 -0.3
v -0.4 0.1 -0.3
v -0.4 1.2 -0.3
v -0.3 1.2 -0.3
v -0.3 1.3 -0.3
v 0.4 1.2 -0.3
v 0.4 1.3 -0.3
v 0.5 0 -0.3
v 0.5 0.1 -0.3
v 0.5 1.2 -0.3
v -0.4 0 0.2
v 0 0 0.2
v 0.1 0 0.2
v 0.5 0 0.2
v -0.5 0 0.1
v -0.4 0 0.1
v 0 0 0.1
v 0.1 0 0.1
v 0.5 0 0.1
v 0.6 0 0.1
v -0.5 0 -0.2
v -0.4 0 -0.2
v 0.5 0 -0.2
v 0.6 0 -0.2
v -0.4 0 -0.3
v 0.5 0 -0.3
v -0.4 1.2 0.2
v -0.3 1.2 0.2
v 0.4 1.2 0.2
v 0.5 1.2 0.2
v -0.4 1.2 0.1
v -0.3 1.2 0.1
v 0.4 1.2 0.1
v 0.5 1.2 0.1
v -0.4 1.2 -0.2
v -0.3 1.2 -0.2
v 0.4 1.2 -0.2
v 0.5 1.2 -0.2
v -0.4 1.2 -0.3
v -0.3 1.2 -0.3
v 0.4 1.2 -0.3
v 0.5 1.2 -0.3
v -0.3 1.3 0.2
v 0.4 1.3 0.2
v -0.5 1.3 0.1
v -0.4 1.3 0.1
v -0.3 1.3 0.1
v 0.4 1.3 0.1
v 0.5 1.3 0.1
v 0.6 1.3 0.1
v -0.5 1.3 -0.2
v -0.4 1.3 -0.2
v -0.3 1.3 -0.2
v 0.4 1.3 -0.2
v 0.5 1.3 -0.2
v 0.6 1.3 -0.2
v -0.3 1.3 -0.3
v 0.4 1.3 -0.3
v -0.4 1.4 0.1
v 0.5 1.4 0.1
v -0.4 1.4 -0.2
v 0.5 1.4 -0.2

# faces
f 3/3/1 2/3/1 1/3/1
f 4/3/1 2/3/1 3/3/1
f 5/2/1 4/2/1 3/2/1
f 6/2/1 4/2/1 5/2/1
f 11/3/1 8/3/1 7/3/1
f 12/3/1 8/3/1 11/3/1
f 13/3/1 10/3/1 9/3/1
f 14/3/1 10/3/1 13/3/1
f 15/2/1 12/2/1 11/2/1
f 16/2/1 12/2/1 15/2/1
f 17/2/1 14/2/1 13/2/1
f 18/2/1 14/2/1 17/2/1
f 21/2/1 20/2/1 19/2/1
f 22/2/1 20/2/1 21/2/1
f 27/2/1 24/2/1 23/2/1
f 28/2/1 24/2/1 27/2/1
f 29/2/1 26/2/1 25/2/1
f 30/2/1 26/2/1 29/2/1
f 31/2/2 32/2/2 35/2/2
f 35/2/2 32/2/2 36/2/2
f 33/2/2 34/2/2 37/2/2
f 37/2/2 34/2/2 38/2/2
f 39/3/2 40/3/2 43/3/2
f 43/3/2 40/3/2 44/3/2
f 41/3/2 42/3/2 45/3/2
f 45/3/2 42/3/2 46/3/2
f 43/2/2 44/2/2 47/2/2
f 47/2/2 44/2/2 48/2/2
f 45/2/2 46/2/2 49/2/2
f 49/2/2 46/2/2 50/2/2
f 51/2/2 52/2/2 53/2/2
f 53/2/2 52/2/2 54/2/2
f 55/3/2 56/3/2 57/3/2
f 57/3/2 56/3/2 58/3/2
f 57/2/2 58/2/2 59/2/2
f 59/2/2 58/2/2 60/2/2
f 64/2/3 63/2/3 62/2/3
f 66/3/3 62/3/3 61/3/3
f 67/2/3 65/2/3 64/2/3
f 67/3/3 62/3/3 66/3/3
f 67/2/3 64/2/3 62/2/3
f 68/1/3 67/1/3 66/1/3
f 69/2/3 65/2/3 67/2/3
f 69/1/3 67/1/3 68/1/3
f 70/2/3 65/2/3 69/2/3
f 71/2/3 65/2/3 70/2/3
f 72/3/3 69/3/3 68/3/3
f 73/2/3 70/2/3 69/2/3
f 73/3/3 69/3/3 72/3/3
f 74/2/3 70/2/3 73/2/3
f 78/3/3 76/3/3 75/3/3
f 79/2/3 77/2/3 76/2/3
f 79/3/3 76/3/3 78/3/3
f 80/2/3 77/2/3 79/2/3
f 81/2/3 77/2/3 80/2/3
f 83/2/3 82/2/3 81/2/3
f 83/2/3 81/2/3 80/2/3
f 84/2/3 82/2/3 83/2/3
f 86/2/3 82/2/3 84/2/3
f 89/2/3 86/2/3 85/2/3
f 90/2/3 82/2/3 86/2/3
f 90/2/3 86/2/3 89/2/3
f 91/2/3 82/2/3 90/2/3
f 92/3/3 88/3/3 87/3/3
f 93/2/3 89/2/3 88/2/3
f 93/3/3 88/3/3 92/3/3
f 93/2/3 90/2/3 89/2/3
f 94/2/3 90/2/3 93/2/3
f 95/3/4 96/3/4 98/3/4
f 96/2/4 97/2/4 99/2/4
f 98/3/4 96/3/4 99/3/4
f 99/2/4 97/2/4 100/2/4
f 100/2/4 97/2/4 101/2/4
f 101/2/4 102/2/4 103/2/4
f 100/2/4 101/2/4 103/2/4
f 103/2/4 102/2/4 104/2/4
f 104/2/4 102/2/4 106/2/4
f 105/2/4 106/2/4 109/2/4
f 106/2/4 102/2/4 110/2/4
f 109/2/4 106/2/4 110/2/4
f 110/2/4 102/2/4 111/2/4
f 107/3/4 108/3/4 112/3/4
f 108/2/4 109/2/4 113/2/4
f 112/3/4 108/3/4 113/3/4
f 109/2/4 110/2/4 113/2/4
f 113/2/4 110/2/4 114/2/4
f 116/2/4 117/2/4 118/2/4
f 116/2/4 118/2/4 120/2/4
f 118/2/4 119/2/4 120/2/4
f 120/2/4 119/2/4 121/2/4
f 115/3/4 116/3/4 122/3/4
f 116/2/4 120/2/4 123/2/4
f 122/3/4 116/3/4 123/3/4
f 123/2/4 120/2/4 124/2/4
f 130/3/5 126/3/5 125/3/5
f 131/1/5 127/1/5 126/1/5
f 131/3/5 126/3/5 130/3/5
f 132/3/5 128/3/5 127/3/5
f 132/1/5 127/1/5 131/1/5
f 133/3/5 128/3/5 132/3/5
f 135/3/5 131/3/5 130/3/5
f 135/3/5 134/3/5 133/3/5
f 135/3/5 133/3/5 132/3/5
f 135/3/5 132/3/5 131/3/5
f 135/3/5 130/3/5 129/3/5
f 136/3/5 134/3/5 135/3/5
f 137/3/5 134/3/5 136/3/5
f 138/3/5 134/3/5 137/3/5
f 139/3/5 137/3/5 136/3/5
f 140/3/5 137/3/5 139/3/5
f 141/2/6 142/2/6 145/2/6
f 145/2/6 142/2/6 146/2/6
f 143/2/6 144/2/6 147/2/6
f 147/2/6 144/2/6 148/2/6
f 149/2/6 150/2/6 153/2/6
f 153/2/6 150/2/6 154/2/6
f 151/2/6 152/2/6 155/2/6
f 155/2/6 152/2/6 156/2/6
f 157/2/6 158/2/6 161/2/6
f 161/2/6 158/2/6 162/2/6
f 159/2/6 160/2/6 165/2/6
f 165/2/6 160/2/6 166/2/6
f 163/2/6 164/2/6 169/2/6
f 169/2/6 164/2/6 170/2/6
f 167/2/6 168/2/6 171/2/6
f 171/2/6 168/2/6 172/2/6
f 173/2/6 174/2/6 175/2/6
f 175/2/6 174/2/6 176/2/6
