# MagicaVoxel @ Ephtracy

# group
o 

# material
mtllib TreeSegment8.mtl
usemtl palette

# normals
vn -1 0 0
vn 1 0 0
vn 0 0 1
vn 0 0 -1
vn 0 -1 0
vn 0 1 0

# texcoords
vt 0.787109 0.5
vt 0.791016 0.5
vt 0.794922 0.5

# verts
v -0.4 0 0.2
v -0.4 0 -0.2
v -0.4 0.5 0.2
v -0.4 0.5 0.1
v -0.4 1 0
v -0.4 1 -0.1
v -0.4 1.9 0.2
v -0.4 1.9 0.1
v -0.4 1.9 0
v -0.4 1.9 -0.1
v -0.4 2.7 0.2
v -0.4 2.7 0.1
v -0.4 2.7 0
v -0.4 2.9 0
v -0.4 2.9 -0.1
v -0.4 3.2 0
v -0.4 3.2 -0.1
v -0.4 3.2 -0.2
v -0.4 3.7 -0.1
v -0.4 3.7 -0.2
v -0.4 3.8 0.2
v -0.4 3.8 0.1
v -0.4 4 0.2
v -0.4 4 -0.2
v -0.3 0 0.3
v -0.3 0 0.2
v -0.3 0 -0.2
v -0.3 0 -0.3
v -0.3 0.1 0.3
v -0.3 0.1 0.2
v -0.3 0.5 0.2
v -0.3 0.5 0.1
v -0.3 1.1 -0.2
v -0.3 1.1 -0.3
v -0.3 1.7 0.3
v -0.3 1.7 0.2
v -0.3 1.9 0.2
v -0.3 1.9 0.1
v -0.3 2.7 0.2
v -0.3 2.7 -0.2
v -0.3 2.7 -0.3
v -0.3 3.2 -0.2
v -0.3 3.7 -0.2
v -0.3 3.8 0.3
v -0.3 3.8 0.2
v -0.3 3.9 0.3
v -0.3 3.9 0.2
v -0.3 4 0.3
v -0.3 4 0.2
v -0.3 4 -0.2
v -0.3 4 -0.3
v -0.2 0 0.4
v -0.2 0 0.3
v -0.2 0 -0.3
v -0.2 0 -0.4
v -0.2 0.1 0.3
v -0.2 0.1 0.2
v -0.2 0.2 -0.3
v -0.2 0.2 -0.4
v -0.2 0.4 -0.3
v -0.2 0.4 -0.4
v -0.2 1.1 -0.2
v -0.2 1.1 -0.3
v -0.2 1.7 0.3
v -0.2 1.7 0.2
v -0.2 2.1 0.4
v -0.2 2.1 0.3
v -0.2 2.7 -0.2
v -0.2 2.7 -0.3
v -0.2 2.7 -0.4
v -0.2 3.4 0.4
v -0.2 3.4 0.3
v -0.2 3.5 0.4
v -0.2 3.5 0.3
v -0.2 3.6 -0.3
v -0.2 3.6 -0.4
v -0.2 3.8 0.4
v -0.2 3.8 0.3
v -0.2 3.9 0.3
v -0.2 4 0.4
v -0.2 4 0.3
v -0.2 4 -0.3
v -0.2 4 -0.4
v -0.1 2.1 0.4
v -0.1 2.1 0.3
v -0.1 2.3 0.4
v -0.1 2.3 0.3
v -0.1 2.7 -0.3
v -0.1 2.7 -0.4
v -0.1 3.1 0.4
v -0.1 3.1 0.3
v -0.1 3.4 0.4
v -0.1 3.4 0.3
v -0.1 3.6 -0.3
v -0.1 3.6 -0.4
v 0.1 0.9 0.4
v 0.1 0.9 0.3
v 0.1 1.2 0.4
v 0.1 1.2 0.3
v 0.1 1.5 -0.3
v 0.1 1.5 -0.4
v 0.1 1.8 -0.3
v 0.1 1.8 -0.4
v 0 0.9 0.4
v 0 0.9 0.3
v 0 1.2 0.4
v 0 1.2 0.3
v 0 1.5 -0.3
v 0 1.5 -0.4
v 0 1.8 -0.3
v 0 1.8 -0.4
v 0.2 0 0.4
v 0.2 0 0.3
v 0.2 0 -0.3
v 0.2 0 -0.4
v 0.2 0.4 0.4
v 0.2 0.4 0.3
v 0.2 0.7 -0.3
v 0.2 1.2 0.4
v 0.2 1.2 0.3
v 0.2 1.3 -0.3
v 0.2 1.5 -0.3
v 0.2 1.5 -0.4
v 0.2 1.8 -0.3
v 0.2 1.8 -0.4
v 0.2 2.1 -0.3
v 0.2 2.8 -0.3
v 0.2 2.8 -0.4
v 0.2 3.1 0.4
v 0.2 3.1 0.3
v 0.2 3.6 -0.3
v 0.2 3.6 -0.4
v 0.2 3.7 0.4
v 0.2 3.7 0.3
v 0.2 3.9 0.3
v 0.2 4 0.4
v 0.2 4 0.3
v 0.2 4 -0.3
v 0.2 4 -0.4
v 0.3 0 0.3
v 0.3 0 0.2
v 0.3 0 -0.2
v 0.3 0 -0.3
v 0.3 0.4 -0.1
v 0.3 0.4 -0.2
v 0.3 0.5 -0.1
v 0.3 0.7 -0.2
v 0.3 0.7 -0.3
v 0.3 1.1 -0.1
v 0.3 1.3 -0.1
v 0.3 1.3 -0.2
v 0.3 1.3 -0.3
v 0.3 2.1 -0.2
v 0.3 2.1 -0.3
v 0.3 2.2 0.2
v 0.3 2.8 -0.2
v 0.3 2.8 -0.3
v 0.3 3.2 0.2
v 0.3 3.2 0.1
v 0.3 3.7 0.3
v 0.3 3.7 0.2
v 0.3 3.9 0.3
v 0.3 3.9 0.2
v 0.3 3.9 0.1
v 0.3 4 0.3
v 0.3 4 0.2
v 0.3 4 -0.2
v 0.3 4 -0.3
v 0.4 0 0.2
v 0.4 0 -0.2
v 0.4 0.4 -0.1
v 0.4 0.4 -0.2
v 0.4 0.5 0
v 0.4 0.5 -0.1
v 0.4 1.1 0.1
v 0.4 1.1 0
v 0.4 1.1 -0.1
v 0.4 1.3 -0.1
v 0.4 1.3 -0.2
v 0.4 2.1 -0.1
v 0.4 2.1 -0.2
v 0.4 2.2 0.2
v 0.4 2.2 0.1
v 0.4 2.2 0
v 0.4 3.2 0.2
v 0.4 3.2 0.1
v 0.4 3.9 0.2
v 0.4 3.9 0.1
v 0.4 4 0.2
v 0.4 4 -0.2
v -0.2 0 0.4
v -0.2 2.1 0.4
v -0.2 3.4 0.4
v -0.2 3.5 0.4
v -0.2 3.8 0.4
v -0.2 4 0.4
v -0.1 0.9 0.4
v -0.1 2.1 0.4
v -0.1 2.3 0.4
v -0.1 3.1 0.4
v -0.1 3.4 0.4
v -0.1 3.5 0.4
v -0.1 3.8 0.4
v 0 0.8 0.4
v 0 0.9 0.4
v 0 1.2 0.4
v 0 1.3 0.4
v 0 2.3 0.4
v 0 3.1 0.4
v 0 3.5 0.4
v 0.1 0.4 0.4
v 0.1 0.8 0.4
v 0.1 0.9 0.4
v 0.1 1.2 0.4
v 0.1 1.3 0.4
v 0.1 2.3 0.4
v 0.1 3.1 0.4
v 0.1 3.7 0.4
v 0.2 0 0.4
v 0.2 0.4 0.4
v 0.2 1.2 0.4
v 0.2 3.1 0.4
v 0.2 3.7 0.4
v 0.2 4 0.4
v -0.3 0 0.3
v -0.3 0.1 0.3
v -0.3 1.7 0.3
v -0.3 3.8 0.3
v -0.3 3.9 0.3
v -0.3 4 0.3
v -0.2 0 0.3
v -0.2 0.1 0.3
v -0.2 1.7 0.3
v -0.2 2.1 0.3
v -0.2 3.4 0.3
v -0.2 3.5 0.3
v -0.2 3.8 0.3
v -0.2 3.9 0.3
v -0.2 4 0.3
v -0.1 2.1 0.3
v -0.1 2.3 0.3
v -0.1 3.1 0.3
v -0.1 3.4 0.3
v 0 0.9 0.3
v 0 1.2 0.3
v 0.1 0.9 0.3
v 0.1 1.2 0.3
v 0.2 0 0.3
v 0.2 0.4 0.3
v 0.2 1.2 0.3
v 0.2 3.1 0.3
v 0.2 3.7 0.3
v 0.2 3.9 0.3
v 0.2 4 0.3
v 0.3 0 0.3
v 0.3 3.7 0.3
v 0.3 3.9 0.3
v 0.3 4 0.3
v -0.4 0 0.2
v -0.4 0.5 0.2
v -0.4 1.9 0.2
v -0.4 2.7 0.2
v -0.4 3.8 0.2
v -0.4 4 0.2
v -0.3 0 0.2
v -0.3 0.1 0.2
v -0.3 0.5 0.2
v -0.3 1.7 0.2
v -0.3 1.9 0.2
v -0.3 2.7 0.2
v -0.3 3.8 0.2
v -0.3 3.9 0.2
v -0.3 4 0.2
v -0.2 0.1 0.2
v -0.2 1.7 0.2
v 0.3 0 0.2
v 0.3 2.2 0.2
v 0.3 3.2 0.2
v 0.3 3.9 0.2
v 0.3 4 0.2
v 0.4 0 0.2
v 0.4 2.2 0.2
v 0.4 3.2 0.2
v 0.4 3.9 0.2
v 0.4 4 0.2
v -0.4 0.5 0.1
v -0.4 1.9 0.1
v -0.3 0.5 0.1
v -0.3 1.9 0.1
v 0.3 3.2 0.1
v 0.3 3.9 0.1
v 0.4 3.2 0.1
v 0.4 3.9 0.1
v 0.3 0.4 -0.1
v 0.3 0.5 -0.1
v 0.3 1.1 -0.1
v 0.3 1.3 -0.1
v 0.4 0.4 -0.1
v 0.4 0.5 -0.1
v 0.4 1.1 -0.1
v 0.4 1.3 -0.1
v -0.4 0 -0.2
v -0.4 3.2 -0.2
v -0.4 3.7 -0.2
v -0.4 4 -0.2
v -0.3 0 -0.2
v -0.3 1.1 -0.2
v -0.3 2.7 -0.2
v -0.3 3.2 -0.2
v -0.3 3.7 -0.2
v -0.3 4 -0.2
v -0.2 1.1 -0.2
v -0.2 2.7 -0.2
v 0.3 0 -0.2
v 0.3 0.4 -0.2
v 0.3 1.3 -0.2
v 0.3 2.1 -0.2
v 0.3 2.8 -0.2
v 0.3 4 -0.2
v 0.4 0 -0.2
v 0.4 0.4 -0.2
v 0.4 1.3 -0.2
v 0.4 2.1 -0.2
v 0.4 4 -0.2
v -0.3 0 -0.3
v -0.3 1.1 -0.3
v -0.3 2.7 -0.3
v -0.3 4 -0.3
v -0.2 0 -0.3
v -0.2 0.2 -0.3
v -0.2 0.4 -0.3
v -0.2 1.1 -0.3
v -0.2 2.7 -0.3
v -0.2 3.6 -0.3
v -0.2 4 -0.3
v -0.1 2.7 -0.3
v -0.1 3.6 -0.3
v 0 1.5 -0.3
v 0 1.8 -0.3
v 0.1 1.5 -0.3
v 0.1 1.8 -0.3
v 0.2 0 -0.3
v 0.2 0.7 -0.3
v 0.2 1.3 -0.3
v 0.2 1.5 -0.3
v 0.2 1.8 -0.3
v 0.2 2.1 -0.3
v 0.2 2.8 -0.3
v 0.2 3.6 -0.3
v 0.2 4 -0.3
v 0.3 0 -0.3
v 0.3 0.7 -0.3
v 0.3 1.3 -0.3
v 0.3 2.1 -0.3
v 0.3 2.8 -0.3
v 0.3 4 -0.3
v -0.2 0 -0.4
v -0.2 0.2 -0.4
v -0.2 0.4 -0.4
v -0.2 2.7 -0.4
v -0.2 3.6 -0.4
v -0.2 4 -0.4
v -0.1 0.2 -0.4
v -0.1 0.4 -0.4
v -0.1 0.8 -0.4
v -0.1 1.5 -0.4
v -0.1 1.8 -0.4
v -0.1 2.4 -0.4
v -0.1 2.7 -0.4
v -0.1 3.6 -0.4
v 0 0.4 -0.4
v 0 0.8 -0.4
v 0 1.5 -0.4
v 0 1.8 -0.4
v 0 2.4 -0.4
v 0 3.6 -0.4
v 0.1 0.8 -0.4
v 0.1 1.5 -0.4
v 0.1 1.8 -0.4
v 0.1 2.4 -0.4
v 0.1 2.8 -0.4
v 0.1 3.6 -0.4
v 0.2 0 -0.4
v 0.2 1.5 -0.4
v 0.2 1.8 -0.4
v 0.2 2.8 -0.4
v 0.2 3.6 -0.4
v 0.2 4 -0.4
v -0.2 0 0.4
v 0.2 0 0.4
v -0.3 0 0.3
v -0.2 0 0.3
v -0.1 0 0.3
v 0.1 0 0.3
v 0.2 0 0.3
v 0.3 0 0.3
v -0.4 0 0.2
v -0.3 0 0.2
v -0.2 0 0.2
v -0.1 0 0.2
v 0.1 0 0.2
v 0.2 0 0.2
v 0.3 0 0.2
v 0.4 0 0.2
v -0.3 0 0.1
v -0.2 0 0.1
v -0.1 0 0.1
v 0.1 0 0.1
v 0.2 0 0.1
v 0.3 0 0.1
v -0.3 0 -0.1
v -0.2 0 -0.1
v -0.1 0 -0.1
v 0.1 0 -0.1
v 0.2 0 -0.1
v 0.3 0 -0.1
v -0.4 0 -0.2
v -0.3 0 -0.2
v -0.2 0 -0.2
v -0.1 0 -0.2
v 0.1 0 -0.2
v 0.2 0 -0.2
v 0.3 0 -0.2
v 0.4 0 -0.2
v -0.3 0 -0.3
v -0.2 0 -0.3
v -0.1 0 -0.3
v 0.1 0 -0.3
v 0.2 0 -0.3
v 0.3 0 -0.3
v -0.2 0 -0.4
v 0.2 0 -0.4
v 0 1.2 0.4
v 0.1 1.2 0.4
v 0 1.2 0.3
v 0.1 1.2 0.3
v 0.3 1.3 -0.1
v 0.4 1.3 -0.1
v 0.3 1.3 -0.2
v 0.4 1.3 -0.2
v -0.3 1.7 0.3
v -0.2 1.7 0.3
v -0.3 1.7 0.2
v -0.2 1.7 0.2
v 0 1.8 -0.3
v 0.1 1.8 -0.3
v 0 1.8 -0.4
v 0.1 1.8 -0.4
v -0.4 1.9 0.2
v -0.3 1.9 0.2
v -0.4 1.9 0.1
v -0.3 1.9 0.1
v -0.3 2.7 -0.2
v -0.2 2.7 -0.2
v -0.3 2.7 -0.3
v -0.2 2.7 -0.3
v -0.2 3.4 0.4
v -0.1 3.4 0.4
v -0.2 3.4 0.3
v -0.1 3.4 0.3
v -0.2 3.6 -0.3
v -0.1 3.6 -0.3
v -0.2 3.6 -0.4
v -0.1 3.6 -0.4
v 0.3 3.9 0.2
v 0.4 3.9 0.2
v 0.3 3.9 0.1
v 0.4 3.9 0.1
v -0.3 0.1 0.3
v -0.2 0.1 0.3
v -0.3 0.1 0.2
v -0.2 0.1 0.2
v 0.3 0.4 -0.1
v 0.4 0.4 -0.1
v 0.3 0.4 -0.2
v 0.4 0.4 -0.2
v -0.4 0.5 0.2
v -0.3 0.5 0.2
v -0.4 0.5 0.1
v -0.3 0.5 0.1
v 0 0.9 0.4
v 0.1 0.9 0.4
v 0 0.9 0.3
v 0.1 0.9 0.3
v -0.3 1.1 -0.2
v -0.2 1.1 -0.2
v -0.3 1.1 -0.3
v -0.2 1.1 -0.3
v 0 1.5 -0.3
v 0.1 1.5 -0.3
v 0 1.5 -0.4
v 0.1 1.5 -0.4
v -0.2 2.1 0.4
v -0.1 2.1 0.4
v -0.2 2.1 0.3
v -0.1 2.1 0.3
v -0.2 2.7 -0.3
v -0.1 2.7 -0.3
v -0.2 2.7 -0.4
v -0.1 2.7 -0.4
v 0.3 3.2 0.2
v 0.4 3.2 0.2
v 0.3 3.2 0.1
v 0.4 3.2 0.1
v -0.2 4 0.4
v 0.2 4 0.4
v -0.3 4 0.3
v -0.2 4 0.3
v -0.1 4 0.3
v 0.1 4 0.3
v 0.2 4 0.3
v 0.3 4 0.3
v -0.4 4 0.2
v -0.3 4 0.2
v -0.2 4 0.2
v -0.1 4 0.2
v 0.1 4 0.2
v 0.2 4 0.2
v 0.3 4 0.2
v 0.4 4 0.2
v -0.3 4 0.1
v -0.2 4 0.1
v -0.1 4 0.1
v 0.1 4 0.1
v 0.2 4 0.1
v 0.3 4 0.1
v -0.3 4 -0.1
v -0.2 4 -0.1
v -0.1 4 -0.1
v 0.1 4 -0.1
v 0.2 4 -0.1
v 0.3 4 -0.1
v -0.4 4 -0.2
v -0.3 4 -0.2
v -0.2 4 -0.2
v -0.1 4 -0.2
v 0.1 4 -0.2
v 0.2 4 -0.2
v 0.3 4 -0.2
v 0.4 4 -0.2
v -0.3 4 -0.3
v -0.2 4 -0.3
v -0.1 4 -0.3
v 0.1 4 -0.3
v 0.2 4 -0.3
v 0.3 4 -0.3
v -0.2 4 -0.4
v 0.2 4 -0.4

# faces
f 3/2/1 2/2/1 1/2/1
f 4/2/1 2/2/1 3/2/1
f 5/2/1 2/2/1 4/2/1
f 6/2/1 2/2/1 5/2/1
f 8/2/1 5/2/1 4/2/1
f 9/1/1 6/1/1 5/1/1
f 9/2/1 5/2/1 8/2/1
f 10/2/1 2/2/1 6/2/1
f 10/1/1 6/1/1 9/1/1
f 11/2/1 8/2/1 7/2/1
f 12/1/1 9/1/1 8/1/1
f 12/2/1 8/2/1 11/2/1
f 13/2/1 10/2/1 9/2/1
f 13/1/1 9/1/1 12/1/1
f 14/2/1 13/2/1 12/2/1
f 14/2/1 10/2/1 13/2/1
f 15/2/1 2/2/1 10/2/1
f 15/2/1 10/2/1 14/2/1
f 16/2/1 14/2/1 12/2/1
f 16/1/1 15/1/1 14/1/1
f 17/2/1 2/2/1 15/2/1
f 17/1/1 15/1/1 16/1/1
f 18/2/1 2/2/1 17/2/1
f 19/2/1 17/2/1 16/2/1
f 19/1/1 18/1/1 17/1/1
f 20/1/1 18/1/1 19/1/1
f 21/1/1 12/1/1 11/1/1
f 22/2/1 16/2/1 12/2/1
f 22/1/1 12/1/1 21/1/1
f 22/2/1 19/2/1 16/2/1
f 22/2/1 20/2/1 19/2/1
f 23/2/1 22/2/1 21/2/1
f 24/2/1 20/2/1 22/2/1
f 24/2/1 22/2/1 23/2/1
f 29/2/1 26/2/1 25/2/1
f 30/2/1 26/2/1 29/2/1
f 33/2/1 28/2/1 27/2/1
f 34/2/1 28/2/1 33/2/1
f 36/2/1 32/2/1 31/2/1
f 37/2/1 32/2/1 36/2/1
f 37/2/1 36/2/1 35/2/1
f 38/2/1 32/2/1 37/2/1
f 39/2/1 37/2/1 35/2/1
f 42/2/1 41/2/1 40/2/1
f 43/2/1 41/2/1 42/2/1
f 44/2/1 39/2/1 35/2/1
f 45/2/1 39/2/1 44/2/1
f 46/1/1 45/1/1 44/1/1
f 47/1/1 45/1/1 46/1/1
f 48/2/1 47/2/1 46/2/1
f 49/2/1 47/2/1 48/2/1
f 50/2/1 41/2/1 43/2/1
f 51/2/1 41/2/1 50/2/1
f 56/2/1 53/2/1 52/2/1
f 58/2/1 55/2/1 54/2/1
f 59/2/1 55/2/1 58/2/1
f 60/1/1 59/1/1 58/1/1
f 61/1/1 59/1/1 60/1/1
f 63/2/1 61/2/1 60/2/1
f 64/2/1 57/2/1 56/2/1
f 64/2/1 56/2/1 52/2/1
f 65/2/1 57/2/1 64/2/1
f 66/2/1 64/2/1 52/2/1
f 67/2/1 64/2/1 66/2/1
f 68/2/1 63/2/1 62/2/1
f 69/2/1 61/2/1 63/2/1
f 69/2/1 63/2/1 68/2/1
f 70/2/1 61/2/1 69/2/1
f 73/2/1 72/2/1 71/2/1
f 74/2/1 72/2/1 73/2/1
f 77/1/1 74/1/1 73/1/1
f 78/1/1 74/1/1 77/1/1
f 79/2/1 78/2/1 77/2/1
f 80/2/1 79/2/1 77/2/1
f 81/2/1 79/2/1 80/2/1
f 82/2/1 76/2/1 75/2/1
f 83/2/1 76/2/1 82/2/1
f 86/1/1 85/1/1 84/1/1
f 87/1/1 85/1/1 86/1/1
f 90/2/1 87/2/1 86/2/1
f 91/2/1 87/2/1 90/2/1
f 92/1/1 91/1/1 90/1/1
f 93/1/1 91/1/1 92/1/1
f 94/1/1 89/1/1 88/1/1
f 95/1/1 89/1/1 94/1/1
f 98/1/1 97/1/1 96/1/1
f 99/1/1 97/1/1 98/1/1
f 102/1/1 101/1/1 100/1/1
f 103/1/1 101/1/1 102/1/1
f 104/1/2 105/1/2 106/1/2
f 106/1/2 105/1/2 107/1/2
f 108/1/2 109/1/2 110/1/2
f 110/1/2 109/1/2 111/1/2
f 112/2/2 113/2/2 116/2/2
f 116/2/2 113/2/2 117/2/2
f 114/2/2 115/2/2 118/2/2
f 116/1/2 117/1/2 119/1/2
f 119/1/2 117/1/2 120/1/2
f 118/2/2 115/2/2 121/2/2
f 121/2/2 115/2/2 122/2/2
f 122/2/2 115/2/2 123/2/2
f 122/1/2 123/1/2 124/1/2
f 124/1/2 123/1/2 125/1/2
f 124/2/2 125/2/2 126/2/2
f 126/2/2 125/2/2 127/2/2
f 127/2/2 125/2/2 128/2/2
f 119/2/2 120/2/2 129/2/2
f 129/2/2 120/2/2 130/2/2
f 127/1/2 128/1/2 131/1/2
f 131/1/2 128/1/2 132/1/2
f 129/1/2 130/1/2 133/1/2
f 133/1/2 130/1/2 134/1/2
f 133/2/2 134/2/2 135/2/2
f 133/2/2 135/2/2 136/2/2
f 136/2/2 135/2/2 137/2/2
f 131/2/2 132/2/2 138/2/2
f 138/2/2 132/2/2 139/2/2
f 142/2/2 143/2/2 145/2/2
f 144/2/2 145/2/2 146/2/2
f 145/2/2 143/2/2 147/2/2
f 146/2/2 145/2/2 147/2/2
f 147/2/2 143/2/2 148/2/2
f 146/2/2 147/2/2 149/2/2
f 149/2/2 147/2/2 150/2/2
f 147/1/2 148/1/2 151/1/2
f 150/2/2 147/2/2 151/2/2
f 151/1/2 148/1/2 152/1/2
f 151/2/2 152/2/2 153/2/2
f 153/2/2 152/2/2 154/2/2
f 140/2/2 141/2/2 155/2/2
f 153/1/2 154/1/2 156/1/2
f 156/1/2 154/1/2 157/1/2
f 140/2/2 155/2/2 158/2/2
f 140/2/2 158/2/2 160/2/2
f 158/2/2 159/2/2 160/2/2
f 160/2/2 159/2/2 161/2/2
f 160/1/2 161/1/2 162/1/2
f 161/2/2 159/2/2 163/2/2
f 162/1/2 161/1/2 163/1/2
f 163/2/2 159/2/2 164/2/2
f 162/2/2 163/2/2 165/2/2
f 165/2/2 163/2/2 166/2/2
f 156/2/2 157/2/2 167/2/2
f 167/2/2 157/2/2 168/2/2
f 169/2/2 170/2/2 171/2/2
f 171/2/2 170/2/2 172/2/2
f 169/2/2 171/2/2 173/2/2
f 173/2/2 171/2/2 174/2/2
f 169/2/2 173/2/2 175/2/2
f 173/1/2 174/1/2 176/1/2
f 175/2/2 173/2/2 176/2/2
f 176/1/2 174/1/2 177/1/2
f 176/2/2 177/2/2 178/2/2
f 176/2/2 178/2/2 180/2/2
f 178/1/2 179/1/2 180/1/2
f 180/1/2 179/1/2 181/1/2
f 169/2/2 175/2/2 182/2/2
f 175/1/2 176/1/2 183/1/2
f 182/2/2 175/2/2 183/2/2
f 176/2/2 180/2/2 184/2/2
f 183/1/2 176/1/2 184/1/2
f 180/2/2 181/2/2 184/2/2
f 182/1/2 183/1/2 185/1/2
f 183/2/2 184/2/2 186/2/2
f 185/1/2 183/1/2 186/1/2
f 186/2/2 184/2/2 188/2/2
f 187/2/2 188/2/2 189/2/2
f 184/2/2 181/2/2 190/2/2
f 189/2/2 188/2/2 190/2/2
f 188/2/2 184/2/2 190/2/2
f 197/2/3 192/2/3 191/2/3
f 198/2/3 192/2/3 197/2/3
f 201/2/3 194/2/3 193/2/3
f 202/1/3 195/1/3 194/1/3
f 202/2/3 194/2/3 201/2/3
f 203/2/3 196/2/3 195/2/3
f 203/1/3 195/1/3 202/1/3
f 204/2/3 197/2/3 191/2/3
f 205/1/3 198/1/3 197/1/3
f 205/2/3 197/2/3 204/2/3
f 205/1/3 199/1/3 198/1/3
f 206/1/3 199/1/3 205/1/3
f 207/1/3 199/1/3 206/1/3
f 208/2/3 200/2/3 199/2/3
f 208/1/3 199/1/3 207/1/3
f 209/1/3 202/1/3 201/1/3
f 209/2/3 200/2/3 208/2/3
f 209/1/3 201/1/3 200/1/3
f 210/2/3 203/2/3 202/2/3
f 210/1/3 202/1/3 209/1/3
f 211/2/3 204/2/3 191/2/3
f 212/1/3 205/1/3 204/1/3
f 212/2/3 204/2/3 211/2/3
f 213/1/3 205/1/3 212/1/3
f 214/1/3 207/1/3 206/1/3
f 215/2/3 208/2/3 207/2/3
f 215/1/3 207/1/3 214/1/3
f 216/1/3 209/1/3 208/1/3
f 216/2/3 208/2/3 215/2/3
f 217/2/3 210/2/3 209/2/3
f 217/1/3 209/1/3 216/1/3
f 218/2/3 203/2/3 210/2/3
f 218/2/3 210/2/3 217/2/3
f 219/2/3 211/2/3 191/2/3
f 220/1/3 214/1/3 213/1/3
f 220/2/3 211/2/3 219/2/3
f 220/1/3 213/1/3 212/1/3
f 220/1/3 212/1/3 211/1/3
f 221/2/3 217/2/3 216/2/3
f 221/1/3 214/1/3 220/1/3
f 221/2/3 216/2/3 215/2/3
f 221/2/3 215/2/3 214/2/3
f 222/1/3 218/1/3 217/1/3
f 222/2/3 217/2/3 221/2/3
f 223/2/3 203/2/3 218/2/3
f 223/1/3 218/1/3 222/1/3
f 224/2/3 196/2/3 203/2/3
f 224/2/3 203/2/3 223/2/3
f 231/2/3 226/2/3 225/2/3
f 232/2/3 226/2/3 231/2/3
f 233/2/3 228/2/3 227/2/3
f 234/2/3 228/2/3 233/2/3
f 235/2/3 228/2/3 234/2/3
f 236/2/3 228/2/3 235/2/3
f 237/1/3 229/1/3 228/1/3
f 237/2/3 228/2/3 236/2/3
f 238/2/3 230/2/3 229/2/3
f 238/1/3 229/1/3 237/1/3
f 239/2/3 230/2/3 238/2/3
f 240/2/3 235/2/3 234/2/3
f 241/2/3 235/2/3 240/2/3
f 242/2/3 235/2/3 241/2/3
f 243/2/3 235/2/3 242/2/3
f 246/1/3 245/1/3 244/1/3
f 247/1/3 245/1/3 246/1/3
f 255/2/3 251/2/3 250/2/3
f 255/2/3 250/2/3 249/2/3
f 255/2/3 249/2/3 248/2/3
f 255/2/3 252/2/3 251/2/3
f 256/1/3 253/1/3 252/1/3
f 256/2/3 252/2/3 255/2/3
f 257/2/3 254/2/3 253/2/3
f 257/1/3 253/1/3 256/1/3
f 258/2/3 254/2/3 257/2/3
f 265/2/3 260/2/3 259/2/3
f 266/2/3 260/2/3 265/2/3
f 267/2/3 260/2/3 266/2/3
f 269/2/3 262/2/3 261/2/3
f 270/1/3 263/1/3 262/1/3
f 270/2/3 262/2/3 269/2/3
f 271/2/3 264/2/3 263/2/3
f 271/1/3 263/1/3 270/1/3
f 272/2/3 264/2/3 271/2/3
f 273/2/3 264/2/3 272/2/3
f 274/2/3 268/2/3 267/2/3
f 274/2/3 267/2/3 266/2/3
f 275/2/3 268/2/3 274/2/3
f 281/2/3 277/2/3 276/2/3
f 282/1/3 278/1/3 277/1/3
f 282/2/3 277/2/3 281/2/3
f 283/1/3 278/1/3 282/1/3
f 284/2/3 280/2/3 279/2/3
f 285/2/3 280/2/3 284/2/3
f 288/2/3 287/2/3 286/2/3
f 289/2/3 287/2/3 288/2/3
f 292/2/3 291/2/3 290/2/3
f 293/2/3 291/2/3 292/2/3
f 294/2/4 295/2/4 298/2/4
f 295/1/4 296/1/4 299/1/4
f 298/2/4 295/2/4 299/2/4
f 296/2/4 297/2/4 300/2/4
f 299/1/4 296/1/4 300/1/4
f 300/2/4 297/2/4 301/2/4
f 302/2/4 303/2/4 306/2/4
f 306/2/4 303/2/4 307/2/4
f 307/2/4 303/2/4 308/2/4
f 303/1/4 304/1/4 309/1/4
f 308/2/4 303/2/4 309/2/4
f 304/2/4 305/2/4 310/2/4
f 309/1/4 304/1/4 310/1/4
f 310/2/4 305/2/4 311/2/4
f 307/2/4 308/2/4 312/2/4
f 312/2/4 308/2/4 313/2/4
f 314/2/4 315/2/4 320/2/4
f 320/2/4 315/2/4 321/2/4
f 316/1/4 317/1/4 322/1/4
f 318/2/4 319/2/4 323/2/4
f 322/1/4 317/1/4 323/1/4
f 317/2/4 318/2/4 323/2/4
f 323/2/4 319/2/4 324/2/4
f 325/2/4 326/2/4 329/2/4
f 329/2/4 326/2/4 330/2/4
f 330/2/4 326/2/4 331/2/4
f 331/2/4 326/2/4 332/2/4
f 327/2/4 328/2/4 333/2/4
f 333/2/4 328/2/4 334/2/4
f 334/2/4 328/2/4 335/2/4
f 333/2/4 334/2/4 336/2/4
f 336/2/4 334/2/4 337/2/4
f 338/1/4 339/1/4 340/1/4
f 340/1/4 339/1/4 341/1/4
f 342/2/4 343/2/4 351/2/4
f 343/1/4 344/1/4 352/1/4
f 351/2/4 343/2/4 352/2/4
f 345/2/4 346/2/4 353/2/4
f 352/1/4 344/1/4 353/1/4
f 344/2/4 345/2/4 353/2/4
f 346/2/4 347/2/4 353/2/4
f 347/1/4 348/1/4 354/1/4
f 353/2/4 347/2/4 354/2/4
f 348/2/4 349/2/4 355/2/4
f 354/1/4 348/1/4 355/1/4
f 349/2/4 350/2/4 355/2/4
f 355/2/4 350/2/4 356/2/4
f 357/2/4 358/2/4 363/2/4
f 358/1/4 359/1/4 363/1/4
f 359/2/4 360/2/4 364/2/4
f 363/1/4 359/1/4 364/1/4
f 364/2/4 360/2/4 365/2/4
f 365/2/4 360/2/4 366/2/4
f 366/2/4 360/2/4 367/2/4
f 367/2/4 360/2/4 368/2/4
f 368/2/4 360/2/4 369/2/4
f 361/2/4 362/2/4 370/2/4
f 363/2/4 364/2/4 371/2/4
f 364/1/4 365/1/4 371/1/4
f 365/2/4 366/2/4 372/2/4
f 371/1/4 365/1/4 372/1/4
f 366/1/4 367/1/4 373/1/4
f 372/2/4 366/2/4 373/2/4
f 367/2/4 368/2/4 374/2/4
f 373/1/4 367/1/4 374/1/4
f 368/1/4 369/1/4 375/1/4
f 374/2/4 368/2/4 375/2/4
f 369/1/4 370/1/4 375/1/4
f 370/2/4 362/2/4 376/2/4
f 375/1/4 370/1/4 376/1/4
f 371/2/4 372/2/4 377/2/4
f 372/1/4 373/1/4 377/1/4
f 377/1/4 373/1/4 378/1/4
f 374/1/4 375/1/4 379/1/4
f 375/2/4 376/2/4 380/2/4
f 379/1/4 375/1/4 380/1/4
f 380/2/4 376/2/4 381/2/4
f 376/2/4 362/2/4 382/2/4
f 381/2/4 376/2/4 382/2/4
f 357/2/4 363/2/4 383/2/4
f 377/2/4 378/2/4 383/2/4
f 363/2/4 371/2/4 383/2/4
f 371/2/4 377/2/4 383/2/4
f 378/1/4 379/1/4 384/1/4
f 383/2/4 378/2/4 384/2/4
f 380/2/4 381/2/4 385/2/4
f 384/1/4 379/1/4 385/1/4
f 379/2/4 380/2/4 385/2/4
f 381/1/4 382/1/4 386/1/4
f 385/2/4 381/2/4 386/2/4
f 382/2/4 362/2/4 387/2/4
f 386/1/4 382/1/4 387/1/4
f 387/2/4 362/2/4 388/2/4
f 392/2/5 390/2/5 389/2/5
f 393/2/5 390/2/5 392/2/5
f 394/2/5 390/2/5 393/2/5
f 395/2/5 390/2/5 394/2/5
f 398/2/5 392/2/5 391/2/5
f 398/2/5 393/2/5 392/2/5
f 399/2/5 393/2/5 398/2/5
f 400/3/5 394/3/5 393/3/5
f 400/2/5 393/2/5 399/2/5
f 401/2/5 396/2/5 395/2/5
f 401/3/5 394/3/5 400/3/5
f 401/2/5 395/2/5 394/2/5
f 402/2/5 396/2/5 401/2/5
f 403/2/5 396/2/5 402/2/5
f 405/2/5 398/2/5 397/2/5
f 405/2/5 399/2/5 398/2/5
f 406/3/5 400/3/5 399/3/5
f 406/2/5 399/2/5 405/2/5
f 407/2/5 401/2/5 400/2/5
f 407/3/5 400/3/5 406/3/5
f 408/3/5 402/3/5 401/3/5
f 408/2/5 401/2/5 407/2/5
f 409/2/5 404/2/5 403/2/5
f 409/3/5 402/3/5 408/3/5
f 409/2/5 403/2/5 402/2/5
f 410/2/5 404/2/5 409/2/5
f 411/2/5 405/2/5 397/2/5
f 411/3/5 406/3/5 405/3/5
f 412/2/5 407/2/5 406/2/5
f 412/3/5 406/3/5 411/3/5
f 413/3/5 408/3/5 407/3/5
f 413/2/5 407/2/5 412/2/5
f 414/2/5 409/2/5 408/2/5
f 414/3/5 408/3/5 413/3/5
f 415/3/5 410/3/5 409/3/5
f 415/2/5 409/2/5 414/2/5
f 416/2/5 404/2/5 410/2/5
f 416/3/5 410/3/5 415/3/5
f 417/2/5 412/2/5 411/2/5
f 417/2/5 411/2/5 397/2/5
f 418/2/5 412/2/5 417/2/5
f 419/3/5 413/3/5 412/3/5
f 419/2/5 412/2/5 418/2/5
f 420/2/5 414/2/5 413/2/5
f 420/3/5 413/3/5 419/3/5
f 421/3/5 415/3/5 414/3/5
f 421/2/5 414/2/5 420/2/5
f 422/2/5 416/2/5 415/2/5
f 422/3/5 415/3/5 421/3/5
f 423/2/5 404/2/5 416/2/5
f 423/2/5 416/2/5 422/2/5
f 424/2/5 404/2/5 423/2/5
f 425/2/5 420/2/5 419/2/5
f 425/2/5 419/2/5 418/2/5
f 426/2/5 420/2/5 425/2/5
f 427/3/5 421/3/5 420/3/5
f 427/2/5 420/2/5 426/2/5
f 428/2/5 422/2/5 421/2/5
f 428/3/5 421/3/5 427/3/5
f 428/2/5 423/2/5 422/2/5
f 429/2/5 423/2/5 428/2/5
f 430/2/5 423/2/5 429/2/5
f 431/2/5 427/2/5 426/2/5
f 431/2/5 429/2/5 428/2/5
f 431/2/5 428/2/5 427/2/5
f 432/2/5 429/2/5 431/2/5
f 435/1/5 434/1/5 433/1/5
f 436/1/5 434/1/5 435/1/5
f 439/1/5 438/1/5 437/1/5
f 440/1/5 438/1/5 439/1/5
f 443/2/5 442/2/5 441/2/5
f 444/2/5 442/2/5 443/2/5
f 447/1/5 446/1/5 445/1/5
f 448/1/5 446/1/5 447/1/5
f 451/2/5 450/2/5 449/2/5
f 452/2/5 450/2/5 451/2/5
f 455/2/5 454/2/5 453/2/5
f 456/2/5 454/2/5 455/2/5
f 459/2/5 458/2/5 457/2/5
f 460/2/5 458/2/5 459/2/5
f 463/2/5 462/2/5 461/2/5
f 464/2/5 462/2/5 463/2/5
f 467/2/5 466/2/5 465/2/5
f 468/2/5 466/2/5 467/2/5
f 469/2/6 470/2/6 471/2/6
f 471/2/6 470/2/6 472/2/6
f 473/2/6 474/2/6 475/2/6
f 475/2/6 474/2/6 476/2/6
f 477/2/6 478/2/6 479/2/6
f 479/2/6 478/2/6 480/2/6
f 481/1/6 482/1/6 483/1/6
f 483/1/6 482/1/6 484/1/6
f 485/2/6 486/2/6 487/2/6
f 487/2/6 486/2/6 488/2/6
f 489/1/6 490/1/6 491/1/6
f 491/1/6 490/1/6 492/1/6
f 493/2/6 494/2/6 495/2/6
f 495/2/6 494/2/6 496/2/6
f 497/2/6 498/2/6 499/2/6
f 499/2/6 498/2/6 500/2/6
f 501/1/6 502/1/6 503/1/6
f 503/1/6 502/1/6 504/1/6
f 505/2/6 506/2/6 508/2/6
f 508/2/6 506/2/6 509/2/6
f 509/2/6 506/2/6 510/2/6
f 510/2/6 506/2/6 511/2/6
f 507/2/6 508/2/6 514/2/6
f 508/2/6 509/2/6 514/2/6
f 514/2/6 509/2/6 515/2/6
f 509/3/6 510/3/6 516/3/6
f 515/2/6 509/2/6 516/2/6
f 511/2/6 512/2/6 517/2/6
f 516/3/6 510/3/6 517/3/6
f 510/2/6 511/2/6 517/2/6
f 517/2/6 512/2/6 518/2/6
f 518/2/6 512/2/6 519/2/6
f 513/2/6 514/2/6 521/2/6
f 514/2/6 515/2/6 521/2/6
f 515/3/6 516/3/6 522/3/6
f 521/2/6 515/2/6 522/2/6
f 516/2/6 517/2/6 523/2/6
f 522/3/6 516/3/6 523/3/6
f 517/3/6 518/3/6 524/3/6
f 523/2/6 517/2/6 524/2/6
f 519/2/6 520/2/6 525/2/6
f 524/3/6 518/3/6 525/3/6
f 518/2/6 519/2/6 525/2/6
f 525/2/6 520/2/6 526/2/6
f 513/2/6 521/2/6 527/2/6
f 521/3/6 522/3/6 527/3/6
f 522/2/6 523/2/6 528/2/6
f 527/3/6 522/3/6 528/3/6
f 523/3/6 524/3/6 529/3/6
f 528/2/6 523/2/6 529/2/6
f 524/2/6 525/2/6 530/2/6
f 529/3/6 524/3/6 530/3/6
f 525/3/6 526/3/6 531/3/6
f 530/2/6 525/2/6 531/2/6
f 526/2/6 520/2/6 532/2/6
f 531/3/6 526/3/6 532/3/6
f 527/2/6 528/2/6 533/2/6
f 513/2/6 527/2/6 533/2/6
f 533/2/6 528/2/6 534/2/6
f 528/3/6 529/3/6 535/3/6
f 534/2/6 528/2/6 535/2/6
f 529/2/6 530/2/6 536/2/6
f 535/3/6 529/3/6 536/3/6
f 530/3/6 531/3/6 537/3/6
f 536/2/6 530/2/6 537/2/6
f 531/2/6 532/2/6 538/2/6
f 537/3/6 531/3/6 538/3/6
f 532/2/6 520/2/6 539/2/6
f 538/2/6 532/2/6 539/2/6
f 539/2/6 520/2/6 540/2/6
f 535/2/6 536/2/6 541/2/6
f 534/2/6 535/2/6 541/2/6
f 541/2/6 536/2/6 542/2/6
f 536/3/6 537/3/6 543/3/6
f 542/2/6 536/2/6 543/2/6
f 537/2/6 538/2/6 544/2/6
f 543/3/6 537/3/6 544/3/6
f 538/2/6 539/2/6 544/2/6
f 544/2/6 539/2/6 545/2/6
f 545/2/6 539/2/6 546/2/6
f 542/2/6 543/2/6 547/2/6
f 544/2/6 545/2/6 547/2/6
f 543/2/6 544/2/6 547/2/6
f 547/2/6 545/2/6 548/2/6
