# Blender v2.82 (sub 7) OBJ File: ''
# www.blender.org
mtllib Chunk.mtl
o Cube_Cube.001
v -0.500000 -0.500000 2.500000
v -0.500000 0.500000 0.500000
v -0.500000 -0.500000 -2.500000
v -0.500000 0.500000 -0.500000
v 2.500000 -0.500000 0.500000
v 0.500000 0.500000 0.500000
v 2.500000 -0.500000 -0.500000
v 0.500000 0.500000 -0.500000
v 0.500000 -0.500000 -2.500000
v 0.500000 -0.500000 2.500000
v -2.500000 -0.500000 0.500000
v -2.500000 -0.500000 -0.500000
vt 0.375000 0.000000
vt 0.625000 0.000000
vt 0.625000 0.250000
vt 0.375000 0.250000
vt 0.375000 0.250000
vt 0.625000 0.500000
vt 0.375000 0.500000
vt 0.375000 0.500000
vt 0.625000 0.750000
vt 0.375000 0.750000
vt 0.375000 0.750000
vt 0.625000 1.000000
vt 0.375000 1.000000
vt 0.875000 0.500000
vt 0.875000 0.750000
vn -0.4472 0.8944 0.0000
vn 0.0000 0.8944 -0.4472
vn 0.4472 0.8944 0.0000
vn 0.0000 0.8944 0.4472
vn 0.0000 1.0000 0.0000
vn 0.4082 0.8165 -0.4082
vn 0.4082 0.8165 0.4082
vn -0.4082 0.8165 0.4082
vn -0.4082 0.8165 -0.4082
usemtl None
s off
f 11/1/1 2/2/1 4/3/1 12/4/1
f 3/5/2 4/3/2 8/6/2 9/7/2
f 7/8/3 8/6/3 6/9/3 5/10/3
f 10/11/4 6/9/4 2/12/4 1/13/4
f 8/6/5 4/14/5 2/15/5 6/9/5
f 7/8/6 9/7/6 8/6/6
f 5/10/7 6/9/7 10/11/7
f 2/2/8 11/1/8 1/13/8
f 3/5/9 12/4/9 4/3/9
